<?xml version="1.0" encoding="UTF-8" standalone="no"?>
<!-- Created with Inkscape (http://www.inkscape.org/) -->

<svg
   xmlns:dc="http://purl.org/dc/elements/1.1/"
   xmlns:cc="http://creativecommons.org/ns#"
   xmlns:rdf="http://www.w3.org/1999/02/22-rdf-syntax-ns#"
   xmlns:svg="http://www.w3.org/2000/svg"
   xmlns="http://www.w3.org/2000/svg"
   xmlns:xlink="http://www.w3.org/1999/xlink"
   xmlns:sodipodi="http://sodipodi.sourceforge.net/DTD/sodipodi-0.dtd"
   xmlns:inkscape="http://www.inkscape.org/namespaces/inkscape"
   width="1052.3622"
   height="744.09448"
   id="svg2"
   version="1.1"
   inkscape:version="0.48.3.1 r9886"
   sodipodi:docname="plantilla6.svg"
   inkscape:export-filename="C:\Otros Julio\00 Plantillas Diplomas\plantilla5\plantilla5.png"
   inkscape:export-xdpi="90"
   inkscape:export-ydpi="90">
  <defs
     id="defs4">
    <inkscape:path-effect
       is_visible="true"
       id="path-effect3961"
       effect="spiro" />
    <inkscape:path-effect
       effect="spiro"
       id="path-effect3949"
       is_visible="true" />
    <inkscape:path-effect
       effect="spiro"
       id="path-effect3933"
       is_visible="true" />
    <inkscape:path-effect
       effect="spiro"
       id="path-effect3885"
       is_visible="true" />
    <inkscape:path-effect
       effect="spiro"
       id="path-effect3881"
       is_visible="true" />
    <linearGradient
       inkscape:collect="always"
       xlink:href="#linearGradient6684"
       id="linearGradient6690"
       gradientTransform="scale(0.843938,1.184922)"
       x1="37.502811"
       y1="35.458244"
       x2="36.499001"
       y2="27.403761"
       gradientUnits="userSpaceOnUse" />
    <radialGradient
       inkscape:collect="always"
       xlink:href="#aigrd2"
       id="radialGradient6678"
       gradientUnits="userSpaceOnUse"
       gradientTransform="matrix(1.135551,0,0,1.135551,-4.540325,-2.077433)"
       cx="26.887432"
       cy="20.479359"
       fx="26.887432"
       fy="20.479359"
       r="14.6944" />
    <radialGradient
       inkscape:collect="always"
       xlink:href="#linearGradient6665"
       id="radialGradient6675"
       gradientUnits="userSpaceOnUse"
       gradientTransform="matrix(1.024478,0,0,0.976107,1.646447,-0.353552)"
       cx="24.452202"
       cy="19.818913"
       fx="24.452202"
       fy="19.818913"
       r="33.156136" />
    <radialGradient
       inkscape:collect="always"
       xlink:href="#linearGradient6665"
       id="radialGradient6663"
       gradientTransform="matrix(1.024478,0,0,0.976107,0.939339,-0.530329)"
       cx="24.452202"
       cy="19.818913"
       fx="24.452202"
       fy="19.818913"
       r="33.156136"
       gradientUnits="userSpaceOnUse" />
    <linearGradient
       inkscape:collect="always"
       xlink:href="#linearGradient6625"
       id="linearGradient6631"
       gradientTransform="matrix(0.843938,0,0,1.184922,-1.28033,1.68934)"
       x1="38.506161"
       y1="22.886259"
       x2="38.250904"
       y2="35.01786"
       gradientUnits="userSpaceOnUse" />
    <linearGradient
       inkscape:collect="always"
       xlink:href="#linearGradient6617"
       id="linearGradient6623"
       gradientTransform="matrix(1.02867,0,0,0.972129,-1.28033,1.18934)"
       x1="18.570419"
       y1="9.4436626"
       x2="29.957399"
       y2="22.783224"
       gradientUnits="userSpaceOnUse" />
    <linearGradient
       inkscape:collect="always"
       xlink:href="#linearGradient6604"
       id="linearGradient6610"
       gradientTransform="matrix(0.975728,0,0,0.931033,-0.132002,1.978392)"
       x1="15.338736"
       y1="5.9244628"
       x2="43.14098"
       y2="49.895073"
       gradientUnits="userSpaceOnUse" />
    <radialGradient
       inkscape:collect="always"
       xlink:href="#aigrd1"
       id="radialGradient5284"
       gradientUnits="userSpaceOnUse"
       cx="28.789101"
       cy="20.971201"
       fx="28.789101"
       fy="20.971201"
       r="13.2807"
       gradientTransform="matrix(1.310386,0,0,1.310386,-8.642682,-4.375977)" />
    <radialGradient
       inkscape:collect="always"
       xlink:href="#aigrd2"
       id="radialGradient5281"
       gradientUnits="userSpaceOnUse"
       cx="19.292"
       cy="13.5444"
       fx="19.292"
       fy="13.5444"
       r="14.6944"
       gradientTransform="matrix(1.135551,0,0,1.135551,-4.540325,-2.077433)" />
    <linearGradient
       inkscape:collect="always"
       xlink:href="#aigrd3"
       id="linearGradient5274"
       gradientUnits="userSpaceOnUse"
       x1="18.229"
       y1="11.5991"
       x2="23.412001"
       y2="16.723101"
       gradientTransform="matrix(1.135551,0,0,1.135551,-3.259995,-3.266773)" />
    <linearGradient
       id="aigrd3"
       gradientUnits="userSpaceOnUse"
       x1="18.229"
       y1="11.5991"
       x2="23.412001"
       y2="16.723101">
      <stop
         offset="0"
         style="stop-color:#FFFFFF"
         id="stop5137" />
      <stop
         offset="1"
         style="stop-color:#901505"
         id="stop5139" />
    </linearGradient>
    <radialGradient
       id="aigrd2"
       cx="19.292"
       cy="13.5444"
       r="14.6944"
       fx="19.292"
       fy="13.5444"
       gradientUnits="userSpaceOnUse">
      <stop
         offset="0"
         style="stop-color:#E41E08"
         id="stop5122" />
      <stop
         offset="1"
         style="stop-color:#901505"
         id="stop5124" />
    </radialGradient>
    <radialGradient
       id="aigrd1"
       cx="28.789101"
       cy="20.971201"
       r="13.2807"
       fx="28.789101"
       fy="20.971201"
       gradientUnits="userSpaceOnUse">
      <stop
         offset="0"
         style="stop-color:#E41E08"
         id="stop5115" />
      <stop
         offset="1"
         style="stop-color:#901505"
         id="stop5117" />
    </radialGradient>
    <linearGradient
       inkscape:collect="always"
       xlink:href="#aigrd3"
       id="linearGradient5203"
       gradientUnits="userSpaceOnUse"
       x1="18.229"
       y1="11.5991"
       x2="23.412001"
       y2="16.723101" />
    <radialGradient
       inkscape:collect="always"
       xlink:href="#aigrd2"
       id="radialGradient5201"
       gradientUnits="userSpaceOnUse"
       cx="19.292"
       cy="13.5444"
       fx="19.292"
       fy="13.5444"
       r="14.6944" />
    <radialGradient
       inkscape:collect="always"
       xlink:href="#aigrd1"
       id="radialGradient5199"
       gradientUnits="userSpaceOnUse"
       cx="28.789101"
       cy="20.971201"
       fx="28.789101"
       fy="20.971201"
       r="13.2807" />
    <linearGradient
       id="linearGradient6604">
      <stop
         style="stop-color:#ffa196;stop-opacity:1.0000000;"
         offset="0.0000000"
         id="stop6606" />
      <stop
         style="stop-color:#ff1f06;stop-opacity:0;"
         offset="1"
         id="stop6608" />
    </linearGradient>
    <linearGradient
       id="linearGradient6617">
      <stop
         style="stop-color:#ffffff;stop-opacity:0.24742268;"
         offset="0.0000000"
         id="stop6619" />
      <stop
         style="stop-color:#ffffff;stop-opacity:0;"
         offset="1"
         id="stop6621" />
    </linearGradient>
    <linearGradient
       id="linearGradient6625">
      <stop
         style="stop-color:#1d2349;stop-opacity:1.0000000;"
         offset="0.0000000"
         id="stop6627" />
      <stop
         id="stop6637"
         offset="0.35315102"
         style="stop-color:#4c5279;stop-opacity:1.0000000;" />
      <stop
         id="stop6633"
         offset="0.46551725"
         style="stop-color:#b3bdff;stop-opacity:1.0000000;" />
      <stop
         style="stop-color:#727cbe;stop-opacity:1.0000000;"
         offset="0.64982164"
         id="stop6635" />
      <stop
         style="stop-color:#323c7e;stop-opacity:1.0000000;"
         offset="1.0000000"
         id="stop6629" />
    </linearGradient>
    <linearGradient
       id="linearGradient6665">
      <stop
         id="stop6667"
         offset="0.0000000"
         style="stop-color:#000000;stop-opacity:1.0000000;" />
      <stop
         id="stop6669"
         offset="1.0000000"
         style="stop-color:#000000;stop-opacity:0.0000000;" />
    </linearGradient>
    <linearGradient
       id="linearGradient6684">
      <stop
         style="stop-color:#d5dbff;stop-opacity:1.0000000;"
         offset="0.0000000"
         id="stop6686" />
      <stop
         style="stop-color:#6579ff;stop-opacity:0;"
         offset="1"
         id="stop6688" />
    </linearGradient>
  </defs>
  <sodipodi:namedview
     id="base"
     pagecolor="#ffffff"
     bordercolor="#666666"
     borderopacity="1.0"
     inkscape:pageopacity="0.0"
     inkscape:pageshadow="2"
     inkscape:zoom="0.71"
     inkscape:cx="71.012265"
     inkscape:cy="340.12087"
     inkscape:document-units="px"
     inkscape:current-layer="layer1"
     showgrid="false"
     inkscape:window-width="1920"
     inkscape:window-height="1004"
     inkscape:window-x="0"
     inkscape:window-y="48"
     inkscape:window-maximized="1"
     units="mm" />
  <metadata
     id="metadata7">
    <rdf:RDF>
      <cc:Work
         rdf:about="">
        <dc:format>image/svg+xml</dc:format>
        <dc:type
           rdf:resource="http://purl.org/dc/dcmitype/StillImage" />
        <dc:title />
      </cc:Work>
    </rdf:RDF>
  </metadata>
  <g
     inkscape:label="Capa 1"
     inkscape:groupmode="layer"
     id="layer1"
     transform="translate(0,-308.35551)">
    <image
       sodipodi:absref="/home/minino/.ConstructorDiplomas/PlantillasBases/FOTO02"
       xlink:href="FOTO02"
       transform="scale(-1,1)"
       y="335.34811"
       x="-165.15117"
       id="image3909"
       height="109.22024"
       width="129.88353" />
    <image
       sodipodi:absref="/home/minino/.ConstructorDiplomas/PlantillasBases/FOTO02"
       xlink:href="FOTO02"
       width="129.25"
       height="109.483"
       id="image3906"
       x="884.56342"
       y="330.34784" />
    <path
       style="opacity:0.48863638999999998;fill:#c74b00;fill-opacity:1;stroke:none"
       d="m 71.25,-0.96875 c -39.794366,0 -71.84375,32.018134 -71.84375,71.8125 l 0,604.25 c 0,39.79437 32.049384,71.8125 71.84375,71.8125 l 909.875,0 c 39.7944,0 71.8125,-32.01813 71.8125,-71.8125 l 0,-604.25 c 0,-39.794366 -32.0181,-71.8125 -71.8125,-71.8125 z m 78.8125,71.8125 c 0,0 520.56558,-95.953884 752.21875,0 25.87267,10.71681 59.40625,26.506576 59.40625,59.40625 0,0 63.741,345.70407 0,499.53125 -10.71739,25.86446 -26.50658,59.375 -59.40625,59.375 0,0 -520.56558,95.95388 -752.21875,0 -25.85906,-10.71117 -48.66383,-33.51594 -59.375,-59.375 -63.720778,-153.83557 0,-499.53125 0,-499.53125 0,-32.899674 26.47533,-59.40625 59.375,-59.40625 z"
       transform="translate(0,308.2677)"
       id="rect2985"
       inkscape:connector-curvature="0"
       sodipodi:nodetypes="ssssssssssasasaass" />
    <g
       id="g3869"
       transform="matrix(2.9817883,0,0,2.9817883,878.73626,901.79759)">
      <path
         id="path6671"
         d="m 25.38911,19.305038 c 0,0 -5.904865,8.175967 -5.904865,11.923286 0,3.747318 6.813306,1.703326 9.538628,4.428649 2.725322,2.725322 -6.359086,9.765738 -6.359086,9.765738 l 9.084408,-2.498212 3.633764,3.860873 c 0,-4.655759 5.337089,-8.403077 2.611767,-11.241954 -2.838878,-2.838878 -10.90129,-2.498213 -11.35551,-6.245531 -0.454221,-3.747318 -1.135551,-9.879294 -1.135551,-9.879294 L 25.38911,19.305038 z"
         style="opacity:0.48044691;color:#000000;fill:url(#radialGradient6675);fill-opacity:1;fill-rule:nonzero;stroke:none;stroke-width:1;marker:none;visibility:visible;display:inline;overflow:visible"
         inkscape:connector-curvature="0" />
      <path
         sodipodi:nodetypes="csssssssssssss"
         id="path6639"
         d="m 36.91616,9.3946518 c 1.321528,3.0573762 3.643133,2.9018182 3.700549,6.9825152 0.03274,2.275762 1.832456,3.470743 1.832456,5.795517 0,2.324773 -4.015015,3.473472 -5.382529,4.840984 -1.367515,1.367516 0.107885,4.874427 -3.60203,5.904959 -3.674662,1.02074 -5.470058,-0.410252 -7.794832,-0.410252 -2.324776,0 -7.887818,4.482688 -9.939091,2.431415 -2.051272,-2.051271 -2.095036,-6.533959 -3.872804,-8.311727 -1.9145211,-1.914521 -4.9394355,-4.5894 -4.9394355,-8.008186 0,-3.418785 1.9742054,-5.223586 4.8026845,-8.401985 2.918275,-3.2793047 3.008531,-8.2050874 6.427317,-8.2050874 3.418785,0 4.729182,0.9378099 7.638964,0.864272 4.638337,-0.1172232 5.20674,-2.32332197 8.618072,-0.5935 3.007702,1.5251494 1.476157,4.7176933 2.510679,7.1110752 z"
         style="opacity:0.48044691;fill:url(#radialGradient6663);fill-opacity:1;fill-rule:nonzero;stroke:none"
         inkscape:connector-curvature="0" />
      <path
         style="fill:url(#linearGradient6631);fill-opacity:1;fill-rule:nonzero;stroke:#1f254f;stroke-width:1;stroke-miterlimit:6.5999999;stroke-opacity:1"
         d="m 23.62134,18.067599 c 0,0 -5.904865,8.175967 -5.904865,11.923286 0,3.747318 6.813306,1.703326 9.538628,4.428649 2.725322,2.725322 -6.359086,9.765738 -6.359086,9.765738 l 9.084408,-2.498212 3.633764,3.860873 c 0,-4.655759 5.337089,-8.403077 2.611767,-11.241954 -2.838878,-2.838878 -10.90129,-2.498213 -11.35551,-6.245531 -0.454221,-3.747318 -1.135551,-9.879294 -1.135551,-9.879294 L 23.62134,18.067599 z"
         id="path5112"
         inkscape:connector-curvature="0" />
      <path
         id="path6680"
         d="m 20.803213,31.602421 c 4.552,0.448384 7.429014,1.235525 7.806622,3.989107 0.330114,2.407239 -4.232143,6.732959 -4.232143,6.732959 l 5.843888,-1.624746 2.84137,2.96095 c 0.662912,-3.71094 4.364808,-6.222004 2.678906,-8.504604 -2.114688,-2.863148 -8.966049,-2.243467 -9.293599,-4.945752 -0.32755,-2.702286 -8.334061,1.124615 -5.645044,1.392086 z"
         style="fill:none;stroke:url(#linearGradient6690);stroke-width:0.72112519;stroke-miterlimit:6.5999999;stroke-opacity:1"
         sodipodi:nodetypes="cscccsss"
         inkscape:connector-curvature="0" />
      <path
         style="fill:url(#radialGradient5284);fill-rule:nonzero;stroke:#4c0901;stroke-linecap:round;stroke-linejoin:round;stroke-miterlimit:4;stroke-opacity:1"
         d="m 34.935485,9.2468088 c 1.266321,2.9296542 3.490941,2.7805952 3.545959,6.6908212 0.03138,2.180692 1.755905,3.325753 1.755905,5.553409 0,2.227656 -3.847288,3.328368 -5.157674,4.638753 -1.310387,1.310388 0.103378,4.670798 -3.451556,5.658279 -3.521153,0.978099 -5.241546,-0.393114 -7.469203,-0.393114 -2.227658,0 -7.558305,4.295424 -9.523886,2.329843 -1.96558,-1.965579 -2.007516,-6.261003 -3.711018,-7.964505 -1.8345421,-1.834542 -4.7330913,-4.397678 -4.7330913,-7.673644 0,-3.275966 1.8917331,-5.005371 4.6020533,-8.050993 2.796364,-3.1423108 2.88285,-7.8623191 6.158816,-7.8623191 3.275966,0 4.531621,0.8986329 7.319847,0.828167 4.444571,-0.1123262 4.989229,-2.22626527 8.258052,-0.5687065 2.882056,1.4614363 1.414491,4.5206119 2.405796,6.8140094 z"
         id="path5119"
         sodipodi:nodetypes="csssssssssssss"
         inkscape:connector-curvature="0" />
      <path
         style="fill:url(#radialGradient6678);fill-rule:nonzero;stroke:none"
         d="m 34.97685,17.567599 c 0,6.245531 -5.10998,11.35551 -11.35551,11.35551 -6.245531,0 -11.35551,-5.109979 -11.35551,-11.35551 0,-6.24553 5.109979,-11.3555099 11.35551,-11.3555099 6.24553,0 11.35551,5.1099799 11.35551,11.3555099 z"
         id="path5126"
         inkscape:connector-curvature="0" />
      <path
         sodipodi:nodetypes="csssssssssssss"
         id="path6600"
         d="m 33.888971,10.030124 c 1.153261,2.668087 3.179261,2.532336 3.229367,6.093447 0.02857,1.985994 1.599132,3.028821 1.599132,5.057586 0,2.028765 -3.503791,3.031202 -4.697182,4.224592 -1.193393,1.193394 0.09415,4.253777 -3.143392,5.153093 -3.206775,0.890771 -4.773567,-0.358015 -6.802333,-0.358015 -2.028766,0 -6.883479,3.911917 -8.673568,2.121828 -1.790087,-1.790087 -1.828279,-5.702004 -3.379688,-7.253413 -1.670749,-1.670749 -4.3105081,-4.005041 -4.3105081,-6.98852 0,-2.983479 1.7228345,-4.558479 4.1911691,-7.332179 2.546698,-2.8617569 2.625462,-7.1603502 5.608941,-7.1603502 2.983479,0 4.127026,0.8184006 6.666312,0.754226 4.047747,-0.1022974 4.543777,-2.0274984 7.52075,-0.5179309 2.624739,1.3309554 1.288202,4.1169996 2.191,6.2056361 z"
         style="fill:none;stroke:url(#linearGradient6610);stroke-linecap:round;stroke-linejoin:round;stroke-miterlimit:4;stroke-opacity:1"
         inkscape:connector-curvature="0" />
      <path
         style="color:#000000;fill:url(#linearGradient6623);fill-opacity:1;fill-rule:nonzero;stroke:none;stroke-width:1;marker:none;visibility:visible;display:inline;overflow:visible"
         d="m 23.66325,7.0524597 c -5.867816,0 -10.646262,4.7422323 -10.646262,10.6100503 0,3.670993 1.983705,6.780628 4.816166,8.690826 C 25.073625,22.456374 23.786958,15.548148 33.44043,13.606789 31.841424,9.7576868 28.088842,7.0524597 23.66325,7.0524597 z"
         id="path6612"
         inkscape:connector-curvature="0" />
    </g>
    <path
       style="fill:none;stroke:none"
       d="m 305.05433,580.5312 c 72.22486,-57.63959 167.14576,-86.01269 259.15493,-77.46479 65.93627,6.12566 130.05138,30.78532 183.09859,70.42254"
       id="path3883"
       inkscape:path-effect="#path-effect3885"
       inkscape:original-d="m 305.05433,580.5312 c 429.57747,0 177.46479,4.22535 259.15493,-77.46479 81.69014,-81.69014 183.09859,70.42254 183.09859,70.42254"
       inkscape:connector-curvature="0"
       sodipodi:nodetypes="csc" />
    <g
       transform="translate(32.428386,0)"
       style="font-size:20px;font-style:normal;font-variant:normal;font-weight:normal;font-stretch:normal;line-height:125%;letter-spacing:0px;word-spacing:0px;fill:#690000;fill-opacity:1;stroke:none;font-family:Arial;-inkscape-font-specification:Arial"
       id="text3887">
      <path
         d="m 386.69798,512.63183 c -1.47404,2.13839 -2.38856,3.50844 -2.74356,4.11016 -0.99008,1.76242 -2.01772,3.54627 -3.08291,5.35154 -1.8508,3.05188 -3.27668,5.71159 -4.27764,7.97914 -1.20566,2.78351 -1.97597,5.71772 -2.31094,8.80264 -6.4719,0.89924 -12.54629,2.32003 -18.22319,4.26238 -5.60174,1.89946 -10.6984,4.1593 -15.28999,6.77951 -5.04331,2.878 -9.79142,6.5355 -14.24435,10.9725 -5.41024,5.38244 -10.46107,12.00667 -15.1525,19.8727 l -2.25696,-0.80754 c 17.46239,-26.9285 23.07937,-45.85002 16.85095,-56.76461 L 314.36908,502.8666 c -1.84707,-3.23666 -3.28585,-6.10766 -4.31635,-8.61301 -1.07347,-2.58047 -1.85116,-5.42958 -2.33307,-8.54736 l -0.69341,0.0963 c -2.16287,3.72896 -3.29358,7.1682 -3.39217,10.31771 -0.14153,3.0744 0.7327,6.26757 2.62272,9.57949 l 11.34008,19.87202 c 3.86591,6.77459 4.00585,15.6754 0.4198,26.70245 -1.43224,4.3098 -4.94651,12.05289 -10.54285,23.22928 l -1.30582,-0.45225 c 2.50852,-6.62033 4.08065,-11.20952 4.71638,-13.76759 1.2608,-5.30958 1.11801,-9.31929 -0.42835,-12.02914 -1.93298,-3.38724 -3.92035,-5.64583 -5.96213,-6.77577 -2.43941,-1.30209 -5.05167,-1.1585 -7.83676,0.4308 -0.97854,0.55844 -1.86054,1.4609 -2.646,2.70737 -0.8284,1.17127 -1.30212,2.43945 -1.42118,3.80456 -0.7519,-0.96788 -1.2782,-1.71529 -1.57889,-2.24223 -1.4175,-2.48397 -1.95894,-4.91908 -1.62432,-7.30535 0.36696,-2.50442 1.60425,-4.35802 3.71188,-5.56079 2.63455,-1.50338 4.33351,-2.37311 5.09687,-2.60921 0.76337,-0.236 2.01028,-0.14927 3.74073,0.26018 -2.14774,-3.76359 -3.73645,-7.59678 -4.76615,-11.49956 -0.95442,-3.94563 -1.36618,-7.55238 -1.23528,-10.82027 0.0879,-3.34303 0.50358,-6.3742 1.24688,-9.09351 0.95891,-3.74025 2.50895,-7.31898 4.65012,-10.73622 -1.656,0.9451 -4.21568,3.10429 -7.67904,6.47759 -1.73167,1.68676 -3.46315,3.02409 -5.19444,4.01197 -6.32289,3.60828 -12.00476,4.75519 -17.04562,3.44072 -5.00848,-1.43256 -9.18797,-5.0845 -12.53849,-10.95586 l 0.59707,-0.78975 c 2.19237,1.04408 4.42233,2.0666 6.68989,3.06755 2.54745,0.44231 6.19224,-0.68966 10.9344,-3.3959 2.5593,-1.46037 9.03336,-6.20258 19.42221,-14.22663 4.99009,-3.84537 9.29168,-6.79902 12.90478,-8.86096 6.39817,-3.65105 12.09681,-5.90516 17.09593,-6.76234 4.99907,-0.85694 10.62633,-0.5258 16.88179,0.99344 6.2877,1.40123 13.56177,7.32854 21.82224,17.78194 6.38055,8.03381 13.37236,18.71231 20.97545,32.03551 m -35.33026,-25.19096 c -2.14779,-3.76355 -5.03231,-6.80738 -8.65355,-9.13152 -3.54605,-2.3669 -7.0444,-3.51377 -10.49506,-3.44064 -4.56876,0.21243 -8.39621,1.19917 -11.48238,2.96022 -1.05383,0.60147 -1.86036,1.11161 -2.41957,1.53042 l 11.14679,19.53329 c 2.66561,0.47461 4.98741,0.69634 6.9654,0.66516 1.97792,-0.031 3.75727,-0.49759 5.33803,-1.39972 2.70978,-1.54629 4.77998,-3.07692 6.21062,-4.59187 1.46286,-1.63301 2.59276,-3.67479 3.38972,-6.12534 m 11.00379,15.87294 c -1.54643,-2.70975 -2.86739,-4.8497 -3.96289,-6.41987 -1.13856,-1.64528 -2.62623,-3.64021 -4.463,-5.9848 -2.57159,4.06197 -5.88972,7.25268 -9.95441,9.57217 -2.0324,1.15985 -3.6614,1.88988 -4.887,2.19008 -1.19336,0.18213 -3.56916,0.39036 -7.12741,0.62471 l 7.79631,13.66201 c 1.15114,-1.65472 2.28084,-3.34714 3.38911,-5.07725 1.34464,-1.66535 3.37188,-3.27125 6.08175,-4.81769 2.86031,-1.63221 5.20972,-2.67356 7.04823,-3.12405 1.91368,-0.49329 3.94011,-0.70173 6.07931,-0.62531 m -18.17281,28.48143 -29.12338,-51.03495 -3.66157,2.23918 c -0.23809,2.73037 0.0346,5.21908 0.818,7.46613 0.7834,2.24722 2.12012,5.02679 4.01014,8.33871 0.5584,0.97862 0.98795,1.73135 1.28865,2.25818 l 11.40451,19.98493 c 1.84703,3.23678 2.89329,6.38167 3.13878,9.43467 0.32071,3.01014 0.0933,5.93392 -0.68234,8.77134 0.51624,-0.49415 1.44652,-1.22458 2.79082,-2.19131 1.34424,-0.96665 2.3551,-1.64329 3.03259,-2.02992 0.82797,-0.47246 1.82799,-0.99324 3.00007,-1.56233 1.17201,-0.56901 2.49992,-1.12721 3.98373,-1.67463 m 28.62679,-9.89989 -8.6824,-14.95249 c -2.89152,-0.34561 -4.97154,-0.40594 -6.24008,-0.18101 -1.99969,0.3429 -4.50497,1.3734 -7.51583,3.09153 -1.95714,1.11689 -3.66182,2.5886 -5.11404,4.41514 -1.45231,1.82666 -2.51247,4.07809 -3.18047,6.75432 l 5.34788,9.37146 c 1.95705,-1.11678 3.33343,-1.85233 4.12916,-2.20665 0.79564,-0.35423 2.58582,-0.97667 5.37056,-1.86732 2.81694,-1.00878 4.95117,-1.72776 6.40269,-2.15695 2.97812,-0.90119 6.13896,-1.6572 9.48253,-2.26803"
         style="font-size:130px;font-weight:bold;fill:#690000;font-family:Diploma;-inkscape-font-specification:Diploma Bold"
         id="path3089"
         inkscape:connector-curvature="0" />
      <path
         d="m 397.70733,431.20209 -5.89357,17.90498 -1.23174,0.41574 -1.78629,-15.86171 -0.20941,-1.02696 8.62213,-2.91013 0.49888,1.47808 m 27.54145,75.90859 -8.86365,15.2029 c -1.72754,-0.24015 -3.29134,-0.67278 -4.69142,-1.29786 -1.34569,-0.73491 -2.56872,-1.64843 -3.66909,-2.74056 -2.0632,-2.04773 -3.92627,-5.53506 -5.58919,-10.462 l -12.13941,-35.9666 -5.6445,-3.30867 7.27013,-12.60698 13.91567,5.45637 -2.9345,6.75307 12.67985,37.56785 c 0.33258,0.98541 1.00697,1.76396 2.02318,2.33565 1.01617,0.57174 2.05802,0.67744 3.12554,0.31712 l 1.75827,-2.51431 2.75912,1.26402"
         style="font-size:130px;font-weight:bold;fill:#690000;font-family:Diploma;-inkscape-font-specification:Diploma Bold"
         id="path3091"
         inkscape:connector-curvature="0" />
      <path
         d="m 474.47616,493.03894 c -1.49581,1.29461 -2.62216,2.24437 -3.37906,2.84927 -1.34441,1.17363 -2.46785,2.34432 -3.37031,3.51209 -2.52575,3.11 -5.0094,6.83136 -7.45096,11.16411 l -5.43744,-2.42703 c -0.10289,-0.0666 -0.75956,-0.23644 -1.97001,-0.50946 -1.12575,-0.29111 -2.4724,-0.57931 -4.03998,-0.86461 l 1.92936,9.0261 c 0.57969,2.71206 1.51975,5.03691 2.8202,6.97456 1.3004,1.93763 3.57515,4.28738 6.82426,7.04924 l -0.50851,0.1087 c -5.25465,1.12318 -10.87388,-0.91049 -16.8577,-6.10099 -1.70215,2.40218 -3.24352,4.10533 -4.62411,5.10945 -1.36251,1.08885 -2.76414,1.78726 -4.20492,2.09525 3.03548,-5.70045 4.01879,-11.05085 2.94996,-16.05122 l -2.03806,-9.53462 c -1.44661,-0.13389 -3.01744,-0.0197 -4.71248,0.34263 -1.86455,0.39856 -3.15103,0.80649 -3.85945,1.22378 l -0.78805,-3.68672 c 0.3209,-0.1572 2.0376,-1.45471 5.15011,-3.89252 1.36249,-1.08884 2.21324,-1.6695 2.55226,-1.74198 l -6.35873,-29.748 c -0.65217,-3.05102 -1.4318,-5.45448 -2.33886,-7.21039 -0.82231,-1.77391 -1.82673,-2.53408 -3.01327,-2.28051 -0.5085,0.10875 -1.07168,0.58363 -1.68953,1.42464 -0.21801,0.22391 -0.48456,0.63538 -0.79963,1.23442 l -2.57753,-2.10778 8.46892,-13.24282 c 2.42095,0.54608 4.37576,1.19172 5.86443,1.93694 1.09532,0.56356 2.04831,1.29041 2.85897,2.18056 0.87728,0.78741 1.7604,2.01663 2.64936,3.68766 0.88894,1.67116 1.60839,3.37849 2.15834,5.12199 1.10239,-1.47632 2.15337,-2.98603 3.15292,-4.52911 1.06617,-1.64583 2.02333,-3.17979 2.8715,-4.60189 0.38168,-0.7019 1.22078,-2.16631 2.51728,-4.39324 1.29647,-2.2268 2.15983,-3.78502 2.59007,-4.67468 2.46944,0.35847 4.61187,1.05263 6.42729,2.0825 1.81537,1.03002 3.63659,2.50184 5.46367,4.41547 1.48218,1.54435 2.6283,3.38204 3.43836,5.51307 0.87662,2.02828 1.66821,4.69505 2.37478,8.00033 l 6.95655,32.54481 m -12.69533,4.04303 -7.93482,-37.12142 c -0.25365,-1.18647 -1.17915,-2.40664 -2.77649,-3.66049 -1.06494,-0.83581 -1.94837,-1.44459 -2.65032,-1.82635 -0.70197,-0.38164 -1.64913,-0.66662 -2.84147,-0.85493 l -6.13312,8.62249 7.0109,32.79907 7.73544,0.73939 7.58988,1.30224"
         style="font-size:130px;font-weight:bold;fill:#690000;font-family:Diploma;-inkscape-font-specification:Diploma Bold"
         id="path3093"
         inkscape:connector-curvature="0" />
      <path
         d="m 514.06776,492.54993 -6.46618,6.33935 -6.25493,5.79771 c -1.03672,-0.86194 -2.29711,-1.79033 -3.78119,-2.78516 -1.39781,-1.00276 -2.7956,-2.00553 -4.19338,-3.00831 -2.60711,-1.84882 -5.61394,-3.31272 -9.0205,-4.3917 l -0.0834,-0.90617 c 1.04249,-0.96627 1.79086,-1.81845 2.24513,-2.55654 1.51156,-2.48901 2.1323,-5.20064 1.86222,-8.13493 l -5.33806,-57.99485 c -0.28597,-3.10678 -2.31386,-6.22738 -6.08367,-9.3618 l 0.30495,-0.94191 c 1.74987,0.10012 3.39808,0.51413 4.94465,1.24202 1.63287,0.72012 3.3997,1.95002 5.3005,3.6897 l 0.80054,0.18742 c 1.77841,-2.42646 3.18488,-4.16603 4.21944,-5.21871 2.4847,-2.3174 5.9709,-3.68268 10.45861,-4.09583 l 0.31848,0.62343 c -2.66635,1.28991 -4.49586,3.63412 -5.48851,7.03266 -0.91433,3.30446 -1.22056,6.59638 -0.91869,9.87577 l 5.56445,60.45446 6.30199,4.64192 3.03376,-2.49858 2.2738,2.01005"
         style="font-size:130px;font-weight:bold;fill:#690000;font-family:Diploma;-inkscape-font-specification:Diploma Bold"
         id="path3095"
         inkscape:connector-curvature="0" />
      <path
         d="m 563.68565,492.74621 c -2.01075,0.54637 -4.06867,1.22137 -6.17379,2.02499 -1.49097,0.56203 -3.33625,1.37349 -5.53582,2.43438 -2.55921,1.48361 -4.59079,2.72298 -6.09475,3.71814 -1.41477,0.91114 -2.61165,1.78549 -3.59062,2.62305 -3.80429,-3.23604 -7.67145,-5.82367 -11.60147,-7.76292 -3.66757,-2.01802 -8.03988,-3.66712 -13.11696,-4.94728 1.59061,-0.99253 2.6312,-2.43518 3.12176,-4.32794 0.57979,-1.97675 0.92189,-4.69768 1.0263,-8.1628 l 1.05318,-34.95413 c 4.45452,-1.07961 6.85635,-1.65754 7.20548,-1.73379 1.13919,-0.39914 2.41356,-0.96769 3.8231,-1.70563 3.43587,-1.80395 6.54221,-4.18147 9.31904,-7.13258 1.77999,1.35429 3.81859,2.75965 6.1158,4.2161 2.38376,1.45918 4.30025,2.60075 5.74946,3.42471 1.53577,0.82668 2.7762,1.38429 3.72131,1.67283 1.03166,0.29126 3.18429,0.78965 6.4579,1.49516 l -1.47992,49.11771 m -13.24224,-0.78916 1.2411,-41.19131 c -1.54367,-0.5667 -2.83133,-0.99567 -3.863,-1.28692 -0.94249,-0.37517 -2.18162,-0.9761 -3.71739,-1.80278 l -7.94672,-3.88108 -1.25284,41.58113 7.95846,3.49126 7.58039,3.0897"
         style="font-size:130px;font-weight:bold;fill:#690000;font-family:Diploma;-inkscape-font-specification:Diploma Bold"
         id="path3097"
         inkscape:connector-curvature="0" />
      <path
         d="m 656.61875,512.83535 -13.67314,7.08063 c -1.66449,-1.63564 -2.87196,-2.94181 -3.6224,-3.91851 -1.24255,-1.53689 -2.01104,-3.00735 -2.30545,-4.41138 -0.62853,-2.63931 -0.3503,-6.49056 0.83467,-11.55376 l 7.84998,-33.54371 -3.88639,-6.78404 -11.26277,5.90905 -8.29432,35.44241 2.57479,5.54251 -13.40654,5.94141 -7.55459,-11.64786 5.55596,-3.77325 8.59055,-36.70821 c 0.23693,-1.0126 0.12379,-2.24068 -0.33942,-3.68426 -0.36812,-0.70915 -0.75865,-1.51261 -1.17157,-2.41037 -0.32864,-0.87793 -0.7811,-1.60687 -1.35741,-2.18684 l -12.32656,6.46117 -8.35357,35.69557 2.93835,4.5595 -13.4496,7.26645 -7.88318,-12.52583 5.87645,-3.43122 8.47206,-36.20189 c 0.45419,-1.94084 0.60587,-3.73001 0.45505,-5.36752 -0.15087,-1.63739 -0.93101,-2.48752 -2.34043,-2.55039 -0.52608,-0.034 -1.19578,0.16526 -2.0091,0.59792 -0.20828,0.12933 -0.57276,0.35557 -1.09342,0.6787 l -1.61865,-2.78202 14.9901,-7.57351 c 2.79194,2.52262 4.53448,5.15562 5.22761,7.899 0.71281,2.65911 0.65452,5.76075 -0.17488,9.30494 l 0.44707,0.37165 21.33516,-11.2956 c 1.00902,1.39331 1.90138,2.71474 2.6771,3.96431 1.09879,1.77035 1.8152,3.27313 2.14924,4.50834 0.35367,1.15093 0.66072,2.69142 0.92116,4.62148 0.3447,1.9499 0.51799,3.68161 0.51988,5.19514 l 8.48074,-4.2904 c 1.00178,-0.47757 2.69757,-1.63836 5.08735,-3.48238 2.49377,-1.90857 4.65816,-3.36023 6.49318,-4.355 l 7.95051,12.80862 6.50126,-3.81906 1.70752,2.40229 c -4.58021,4.35769 -7.04622,6.71786 -7.39803,7.08051 -1.63032,2.02174 -2.70216,4.12962 -3.21553,6.32365 l -7.25753,31.0121 c -0.25681,1.09703 -0.19574,2.35743 0.1832,3.78123 0.39854,1.33939 1.01978,2.10783 1.86373,2.30532 0.50624,0.11848 1.11399,-0.006 1.82327,-0.37438 0.20819,-0.12929 0.52059,-0.32321 0.93722,-0.58175 l 1.55132,2.49924"
         style="font-size:130px;font-weight:bold;fill:#690000;font-family:Diploma;-inkscape-font-specification:Diploma Bold"
         id="path3099"
         inkscape:connector-curvature="0" />
      <path
         d="m 707.22578,535.54085 -15.72284,5.46206 c -0.86473,-1.24529 -1.53969,-2.59517 -2.02488,-4.04964 -0.48525,-1.4545 -0.79853,-2.97409 -0.93985,-4.55878 -0.19593,-2.94015 0.43613,-6.02999 1.89619,-9.26951 l 0.26707,-0.59259 -23.85051,7.36011 -0.71112,-0.32049 c -1.88634,-4.46251 -2.89964,-8.43648 -3.03989,-11.92193 -0.0613,-3.44983 0.65594,-6.83401 2.15158,-10.15256 3.38296,-7.50619 11.15725,-13.36599 23.3229,-17.57941 l 1.49376,-20.71572 1.70766,-0.94149 c 0.87689,0.5854 1.67092,1.03832 2.38207,1.35876 1.10614,0.4986 2.42376,0.94984 3.95286,1.35373 1.60803,0.43961 2.87835,0.67942 3.81096,0.71942 1.04715,-0.003 2.01533,-0.0423 2.90454,-0.11689 0.96813,-0.0389 1.94632,-0.31101 2.93458,-0.81631 l 13.44117,14.47079 5.47187,-1.38389 1.45729,1.51235 c -3.51442,2.31369 -5.7796,3.85946 -6.79556,4.63732 -1.83848,1.54803 -3.185,3.27018 -4.03959,5.16646 l -14.84948,32.94833 c -0.42737,0.94814 -0.56034,1.98142 -0.39892,3.09984 0.19694,1.03939 0.73,1.75495 1.59919,2.14667 0.55304,0.24926 1.15565,0.2832 1.80783,0.10181 0.19358,-0.008 0.49794,-0.15582 0.91308,-0.44404 l 0.85804,2.5256 m -7.17661,-33.74932 6.46327,-14.34082 -13.50628,-14.64272 -2.22662,16.9632 9.26963,12.02034 m -8.01231,17.77788 6.83717,-15.17046 -9.39983,-12.36421 c -1.77502,1.19637 -3.50882,2.9341 -5.2014,5.21321 -1.69265,2.27916 -3.0197,4.4854 -3.98115,6.61872 -1.56687,3.47658 -2.42818,6.65322 -2.58392,9.52993 -0.0412,2.83332 0.6288,5.98713 2.00992,9.46142 l 12.31921,-3.28861"
         style="font-size:130px;font-weight:bold;fill:#690000;font-family:Diploma;-inkscape-font-specification:Diploma Bold"
         id="path3101"
         inkscape:connector-curvature="0" />
    </g>
    <text
       xml:space="preserve"
       style="font-size:20px;font-style:normal;font-variant:normal;font-weight:normal;font-stretch:normal;line-height:125%;letter-spacing:0px;word-spacing:0px;fill:#000000;fill-opacity:1;stroke:none;font-family:Arial;-inkscape-font-specification:Arial"
       x="147.88731"
       y="368.03815"
       id="text3894"
       sodipodi:linespacing="125%"
       transform="translate(0,308.2677)"><tspan
         sodipodi:role="line"
         id="tspan3896"
         x="147.88731"
         y="368.03815"
         style="font-size:32px;font-style:normal;font-variant:normal;font-weight:normal;font-stretch:normal;font-family:Liberation Sans;-inkscape-font-specification:Liberation Sans">Este diploma se otorga a: ______________________</tspan></text>
    <text
       xml:space="preserve"
       style="font-size:20px;font-style:normal;font-variant:normal;font-weight:normal;font-stretch:normal;line-height:125%;letter-spacing:0px;word-spacing:0px;fill:#000000;fill-opacity:1;stroke:none;font-family:Arial;-inkscape-font-specification:Arial"
       x="527.17474"
       y="609.22723"
       id="text3070"
       sodipodi:linespacing="125%"><tspan
         sodipodi:role="line"
         x="527.17474"
         y="609.22723"
         id="tspan3072"><tspan
           x="527.17474"
           y="609.22723"
           style="font-size:22px;font-weight:bold;text-align:center;text-anchor:middle;-inkscape-font-specification:Arial Bold"
           id="tspan3074">PLANTILLA01</tspan></tspan></text>
    <text
       xml:space="preserve"
       style="font-size:20px;font-style:normal;font-variant:normal;font-weight:normal;font-stretch:normal;line-height:125%;letter-spacing:0px;word-spacing:0px;fill:#000000;fill-opacity:1;stroke:none;font-family:Arial;-inkscape-font-specification:Arial"
       x="522.53125"
       y="670.95245"
       id="text3076"
       sodipodi:linespacing="125%"><tspan
         sodipodi:role="line"
         x="522.53125"
         y="670.95245"
         id="tspan3078"><tspan
           x="522.53125"
           y="670.95245"
           style="font-size:24px;font-style:italic;-inkscape-font-specification:Arial Italic"
           id="tspan3080">CAMPO01</tspan></tspan></text>
    <path
       style="fill:none;stroke:#000000;stroke-width:1px;stroke-linecap:butt;stroke-linejoin:miter;stroke-opacity:1"
       d="m 129.57746,789.7988 284.50705,0"
       id="path3931"
       inkscape:path-effect="#path-effect3933"
       inkscape:original-d="m 129.57746,789.7988 c 284.50705,0 284.50705,0 284.50705,0"
       inkscape:connector-curvature="0" />
    <text
       xml:space="preserve"
       style="font-size:20px;font-style:normal;font-variant:normal;font-weight:normal;font-stretch:normal;line-height:125%;letter-spacing:0px;word-spacing:0px;fill:#000000;fill-opacity:1;stroke:none;font-family:Arial;-inkscape-font-specification:Arial"
       x="133.8125"
       y="779.01172"
       id="text3082"
       sodipodi:linespacing="125%"><tspan
         sodipodi:role="line"
         x="133.8125"
         y="779.01172"
         id="tspan3084"><tspan
           x="133.8125"
           y="779.01172"
           style="font-style:italic;-inkscape-font-specification:Arial Italic"
           id="tspan3086">CAMPO02</tspan></tspan></text>
    <text
       xml:space="preserve"
       style="font-size:20px;font-style:normal;font-variant:normal;font-weight:normal;font-stretch:normal;line-height:125%;letter-spacing:0px;word-spacing:0px;fill:#000000;fill-opacity:1;stroke:none;font-family:Arial;-inkscape-font-specification:Arial"
       x="281.69012"
       y="979.12274"
       id="text3943"
       sodipodi:linespacing="125%"><tspan
         sodipodi:role="line"
         id="tspan3945"
         x="281.69012"
         y="979.12274">CAMPO03</tspan></text>
    <path
       style="fill:none;stroke:#000000;stroke-width:1px;stroke-linecap:butt;stroke-linejoin:miter;stroke-opacity:1"
       d="m 585.91549,884.75655 330.98592,0"
       id="path3947"
       inkscape:path-effect="#path-effect3949"
       inkscape:original-d="m 585.91549,884.75655 c 330.98592,0 330.98592,0 330.98592,0"
       inkscape:connector-curvature="0" />
    <text
       xml:space="preserve"
       style="font-size:20px;font-style:normal;font-variant:normal;font-weight:normal;font-stretch:normal;line-height:125%;letter-spacing:0px;word-spacing:0px;fill:#000000;fill-opacity:1;stroke:none;font-family:Arial;-inkscape-font-specification:Arial"
       x="592.95776"
       y="570.85504"
       id="text3951"
       sodipodi:linespacing="125%"
       transform="translate(0,308.2677)"><tspan
         sodipodi:role="line"
         id="tspan3953"
         x="592.95776"
         y="570.85504">CAMPO04</tspan></text>
    <text
       xml:space="preserve"
       style="font-size:20px;font-style:normal;font-variant:normal;font-weight:normal;font-stretch:normal;line-height:125%;letter-spacing:0px;word-spacing:0px;fill:#000000;fill-opacity:1;stroke:none;font-family:Arial;-inkscape-font-specification:Arial"
       x="592.95776"
       y="604.65784"
       id="text3955"
       sodipodi:linespacing="125%"
       transform="translate(0,308.2677)"><tspan
         sodipodi:role="line"
         id="tspan3957"
         x="592.95776"
         y="604.65784">CAMPO05</tspan></text>
    <path
       inkscape:connector-curvature="0"
       inkscape:original-d="m 585.91549,920.75655 c 330.98592,0 330.98592,0 330.98592,0"
       inkscape:path-effect="#path-effect3961"
       id="path3959"
       d="m 585.91549,920.75655 330.98592,0"
       style="fill:none;stroke:#000000;stroke-width:1px;stroke-linecap:butt;stroke-linejoin:miter;stroke-opacity:1" />
    <image
       sodipodi:absref="/home/minino/.ConstructorDiplomas/PlantillasBases/FOTO03"
       xlink:href="FOTO03"
       width="223.71831"
       height="217.83098"
       id="image3077"
       x="8.1126852"
       y="828.27765" />
  </g>
</svg>
